<svg width="12" height="12" viewBox="0 0 12 12" fill="none" xmlns="http://www.w3.org/2000/svg">
<mask id="mask0_270_51308" style="mask-type:luminance" maskUnits="userSpaceOnUse" x="0" y="0" width="12" height="12">
<rect width="12" height="12" fill="white"/>
</mask>
<g mask="url(#mask0_270_51308)">
<path fill-rule="evenodd" clip-rule="evenodd" d="M0 0V12H12V0H0Z" fill="#F7FCFF"/>
<mask id="mask1_270_51308" style="mask-type:luminance" maskUnits="userSpaceOnUse" x="0" y="0" width="12" height="12">
<path fill-rule="evenodd" clip-rule="evenodd" d="M0 0V12H12V0H0Z" fill="white"/>
</mask>
<g mask="url(#mask1_270_51308)">
<path fill-rule="evenodd" clip-rule="evenodd" d="M0 0V6H12V0H0Z" fill="#E31D1C"/>
<path d="M1.44409 3.18679C1.44419 1.07922 2.81095 0.924092 3.32593 1.09792C3.32593 1.09792 2.26646 1.64742 2.26636 3.18679C2.26636 4.72632 3.32593 5.29519 3.32593 5.29519C2.79025 5.69264 1.44409 5.29452 1.44409 3.18679ZM4.04663 4.18581H4.38843L4.1355 4.56276L4.21167 5.0403L3.90112 4.79519L3.59741 5.0403L3.66675 4.56276L3.41382 4.20534L3.75659 4.18581L3.90112 3.7405L4.04663 4.18581ZM5.15112 4.15847H5.49292L5.24097 4.53542L5.31714 5.01296L5.00562 4.76784L4.7019 5.01296L4.77124 4.53542L4.51831 4.178L4.86108 4.15847L5.00562 3.71315L5.15112 4.15847ZM3.65894 3.00222H4.00073L3.74878 3.37819L3.82397 3.85573L3.51343 3.61159L3.20972 3.85573L3.27905 3.37819L3.02612 3.02077L3.3689 3.00222L3.51343 2.55593L3.65894 3.00222ZM5.66772 2.97976H6.0105L5.75757 3.35671L5.83374 3.83425L5.52319 3.58913L5.21948 3.83425L5.28882 3.35671L5.03491 2.99929L5.37769 2.97976L5.52319 2.53444L5.66772 2.97976ZM4.6814 2.03054H5.02417L4.77124 2.40749L4.84741 2.88503L4.53687 2.63991L4.23315 2.88503L4.30249 2.40749L4.04858 2.05007L4.39136 2.03054L4.53687 1.58522L4.6814 2.03054Z" fill="#F1F9FF"/>
</g>
</g>
</svg>
